<!DOCTYPE svg PUBLIC "-//W3C//DTD SVG 1.1//EN" "http://www.w3.org/Graphics/SVG/1.1/DTD/svg11.dtd">

<!-- Uploaded to: SVG Repo, www.svgrepo.com, Transformed by: SVG Repo Mixer Tools -->
<svg version="1.1" id="Layer_1" xmlns="http://www.w3.org/2000/svg" xmlns:xlink="http://www.w3.org/1999/xlink" viewBox="0 0 460 460" xml:space="preserve" width="30px" height="30px" fill="#000000">

<g id="SVGRepo_bgCarrier" stroke-width="0"/>

<g id="SVGRepo_tracerCarrier" stroke-linecap="round" stroke-linejoin="round"/>

<g id="SVGRepo_iconCarrier"> <g> <path style="fill:#5488A8;" d="M230,0C124.526,0,35.634,70.997,8.507,167.807l451.26,51.752C454.309,97.379,353.526,0,230,0z"/> <path style="fill:#366796;" d="M459.754,219.56L292.78,52.587L206.064,200.09L24.467,333.31C62.31,408.448,140.129,460,230,460 c127.025,0,230-102.975,230-230C460,226.5,459.908,223.021,459.754,219.56z"/> <path style="fill:#273B7A;" d="M115.11,167.81H8.515C2.972,187.592,0,208.448,0,230c0,17.11,1.884,33.778,5.428,49.822 L137.08,291.4L115.11,167.81z"/> <path style="fill:#121149;" d="M51.473,375h63.637l21.97-103.6H3.724C10.777,310.203,27.57,345.606,51.473,375z"/> <path style="fill:#38C6D9;" d="M376.08,167.81c12.23,0,22.15,9.91,22.15,22.15c0,12.23-9.92,22.14-22.15,22.14h-72.34l20-44.29 H376.08z"/> <path style="fill:#38C6D9;" d="M367.01,222.1c12.23,0,22.15,9.92,22.15,22.16c0,12.23-9.92,22.14-22.15,22.14h-63.27v-44.3 L367.01,222.1L367.01,222.1z"/> <path style="fill:#38C6D9;" d="M357.94,276.4c12.23,0,22.15,9.92,22.15,22.15c0,12.24-9.92,22.15-22.15,22.15h-54.2v-44.3H357.94z"/> <path style="fill:#38C6D9;" d="M348.87,330.7c12.23,0,22.14,9.92,22.14,22.15c0,12.23-9.91,22.15-22.14,22.15h-25.13l-20-44.3 H348.87z"/> <path style="fill:#71E2F0;" d="M274.14,167.81c17.54-26.92,26.22-61.55,26.22-96.91c0-14.31-11.59-25.9-25.89-25.9 c-14.31,0-25.91,11.59-25.91,25.9c0,53.52-43.38,96.91-96.9,96.91l-30,103.59l30,103.6h172.08V167.81H274.14z"/> <polygon style="fill:#C2FBFF;" points="151.66,271.4 151.66,375 115.11,375 115.11,271.4 133.385,251.4 "/> <rect x="115.11" y="167.81" style="fill:#FFFFFF;" width="36.55" height="103.59"/> <circle style="fill:#C2FBFF;" cx="298.938" cy="189.955" r="10"/> <circle style="fill:#C2FBFF;" cx="298.938" cy="244.253" r="10"/> <circle style="fill:#C2FBFF;" cx="298.938" cy="298.552" r="10"/> <circle style="fill:#C2FBFF;" cx="298.938" cy="352.85" r="10"/> </g> </g>

</svg>